<?xml version="1.0" encoding="UTF-8" standalone="no"?>
<!DOCTYPE svg PUBLIC "-//W3C//DTD SVG 1.1//EN" "http://www.w3.org/Graphics/SVG/1.1/DTD/svg11.dtd">
<svg width="100%" height="100%" viewBox="0 0 374 387" version="1.1" xmlns="http://www.w3.org/2000/svg" xmlns:xlink="http://www.w3.org/1999/xlink" xml:space="preserve" xmlns:serif="http://www.serif.com/" style="fill-rule:evenodd;clip-rule:evenodd;stroke-linecap:round;stroke-linejoin:round;stroke-miterlimit:1.5;">
    <g id="poignet" transform="matrix(1.07252,-0.189114,0.189114,1.07252,-128.048,-52.5329)">
        <g transform="matrix(1.22557,0,0,0.163158,-38.7722,348.136)">
            <path d="M152.805,286.896C152.805,254.583 149.313,228.35 145.011,228.35L106.367,228.35C102.065,228.35 98.573,254.583 98.573,286.896L98.573,403.988C98.573,436.3 102.065,462.534 106.367,462.534L145.011,462.534C149.313,462.534 152.805,436.3 152.805,403.988L152.805,286.896Z" style="fill:rgb(63,63,63);"/>
        </g>
        <g transform="matrix(1.10739,0,0,0.741053,-23.918,61.7357)">
            <path d="M152.805,248.61C152.805,237.428 146.73,228.35 139.247,228.35L112.131,228.35C104.648,228.35 98.573,237.428 98.573,248.61L98.573,442.273C98.573,453.455 104.648,462.534 112.131,462.534L139.247,462.534C146.73,462.534 152.805,453.455 152.805,442.273L152.805,248.61Z" style="fill:rgb(63,63,63);"/>
        </g>
        <g transform="matrix(1.22557,0,0,0.163158,-38.7722,174.594)">
            <path d="M152.805,286.896C152.805,254.583 149.313,228.35 145.011,228.35L106.367,228.35C102.065,228.35 98.573,254.583 98.573,286.896L98.573,403.988C98.573,436.3 102.065,462.534 106.367,462.534L145.011,462.534C149.313,462.534 152.805,436.3 152.805,403.988L152.805,286.896Z" style="fill:rgb(63,63,63);"/>
        </g>
        <g transform="matrix(1.10739,0,0,0.0526315,-23.918,237.819)">
            <rect x="98.573" y="228.35" width="54.232" height="234.184" style="fill:rgb(251,47,73);"/>
        </g>
        <g transform="matrix(1.10739,0,0,0.0526315,-23.918,278.789)">
            <rect x="98.573" y="228.35" width="54.232" height="234.184" style="fill:rgb(251,47,73);"/>
        </g>
        <g transform="matrix(1.10739,0,0,0.0526315,-23.918,320.301)">
            <rect x="98.573" y="228.35" width="54.232" height="234.184" style="fill:rgb(251,47,73);"/>
        </g>
        <g transform="matrix(1.10739,0,0,0.0526315,-23.918,360.088)">
            <rect x="98.573" y="228.35" width="54.232" height="234.184" style="fill:rgb(251,47,73);"/>
        </g>
    </g>
    <g id="poignet1" serif:id="poignet" transform="matrix(1.07252,0.189114,-0.189114,1.07252,254.345,-96.1037)">
        <g transform="matrix(1.22557,0,0,0.163158,-38.7722,348.136)">
            <path d="M152.805,286.896C152.805,254.583 149.313,228.35 145.011,228.35L106.367,228.35C102.065,228.35 98.573,254.583 98.573,286.896L98.573,403.988C98.573,436.3 102.065,462.534 106.367,462.534L145.011,462.534C149.313,462.534 152.805,436.3 152.805,403.988L152.805,286.896Z" style="fill:rgb(63,63,63);"/>
        </g>
        <g transform="matrix(1.10739,0,0,0.741053,-23.918,61.7357)">
            <path d="M152.805,248.61C152.805,237.428 146.73,228.35 139.247,228.35L112.131,228.35C104.648,228.35 98.573,237.428 98.573,248.61L98.573,442.273C98.573,453.455 104.648,462.534 112.131,462.534L139.247,462.534C146.73,462.534 152.805,453.455 152.805,442.273L152.805,248.61Z" style="fill:rgb(63,63,63);"/>
        </g>
        <g transform="matrix(1.22557,0,0,0.163158,-38.7722,174.594)">
            <path d="M152.805,286.896C152.805,254.583 149.313,228.35 145.011,228.35L106.367,228.35C102.065,228.35 98.573,254.583 98.573,286.896L98.573,403.988C98.573,436.3 102.065,462.534 106.367,462.534L145.011,462.534C149.313,462.534 152.805,436.3 152.805,403.988L152.805,286.896Z" style="fill:rgb(63,63,63);"/>
        </g>
        <g transform="matrix(1.10739,0,0,0.0526315,-23.918,237.819)">
            <rect x="98.573" y="228.35" width="54.232" height="234.184" style="fill:rgb(251,47,73);"/>
        </g>
        <g transform="matrix(1.10739,0,0,0.0526315,-23.918,278.789)">
            <rect x="98.573" y="228.35" width="54.232" height="234.184" style="fill:rgb(251,47,73);"/>
        </g>
        <g transform="matrix(1.10739,0,0,0.0526315,-23.918,320.301)">
            <rect x="98.573" y="228.35" width="54.232" height="234.184" style="fill:rgb(251,47,73);"/>
        </g>
        <g transform="matrix(1.10739,0,0,0.0526315,-23.918,360.088)">
            <rect x="98.573" y="228.35" width="54.232" height="234.184" style="fill:rgb(251,47,73);"/>
        </g>
    </g>
    <g transform="matrix(1.08906,0,0,1.08906,-68.2973,-79.9687)">
        <circle cx="234.224" cy="176.529" r="97.688" style="fill:none;stroke:rgb(63,63,63);stroke-width:10.82px;"/>
    </g>
    <g transform="matrix(0.888445,0,0,0.910431,-21.3082,-65.8853)">
        <circle cx="234.224" cy="176.529" r="97.688" style="fill:none;stroke:rgb(63,63,63);stroke-width:13.1px;"/>
    </g>
    <g transform="matrix(1.56724,0,0,1.56724,-180.463,-117.669)">
        <path d="M331.792,181.379C331.872,179.763 331.912,178.146 331.912,176.529C331.912,122.613 288.139,78.841 234.224,78.841C180.308,78.841 136.535,122.613 136.535,176.529C136.535,178.146 136.576,179.763 136.656,181.379C136.576,179.763 136.535,178.146 136.535,176.529C136.535,122.613 180.308,78.841 234.224,78.841C288.139,78.841 331.912,122.613 331.912,176.529C331.912,178.146 331.872,179.763 331.792,181.379Z" style="fill:none;stroke:rgb(63,63,63);stroke-width:7.52px;"/>
    </g>
</svg>
